# xmcd
#
# Track frame offsets: 
#        150
#        14194
#        27006
#        44398
#        56565
#        70797
#        81911
#        96375
#        107516
#        126416
#
# Disc length: 1878 seconds
#
# Revision: 4
# Processed by: cddbd v1.5.2PL0 Copyright (c) Steve Scherf et al.
# Submitted via: ExactAudioCopy v0.99pb3
#
DISCID=8707540a
DTITLE=Teodoro and Sampaio - Mulher De Peão - Disc 2
DYEAR=2002
DGENRE=Country
TTITLE0=A Gostosona (A Gauchona)
TTITLE1=Na Sola Da Bota
TTITLE2=Saudades Da Fronteira
TTITLE3=Garanhão Da Madrugada (Instrumental)
TTITLE4=Amigo Descarado
TTITLE5=Whisky Com Guaraná
TTITLE6=Chamando A Gauchada
TTITLE7=Amizade De Gaiteiro
TTITLE8=No Fole Do Juvenal
TTITLE9=Dançando A Vanera
EXTD=
EXTT0=
EXTT1=
EXTT2=
EXTT3=
EXTT4=
EXTT5=
EXTT6=
EXTT7=
EXTT8=
EXTT9=
PLAYORDER=
